
<svg width="32" height="32" viewBox="0 0 32 32" fill="none" xmlns="http://www.w3.org/2000/svg">
  <circle cx="16" cy="16" r="16" fill="#6B8E23"/>
  <path d="M9 16.5C9 12.9101 11.9101 10 15.5 10C19.0899 10 22 12.9101 22 16.5C22 20.0899 19.0899 23 15.5 23C11.9101 23 9 20.0899 9 16.5Z" stroke="white" stroke-width="2"/>
  <path d="M15.5 10C17.9853 10 20 12.0147 20 14.5C20 16.9853 17.9853 19 15.5 19C13.0147 19 11 16.9853 11 14.5C11 12.0147 13.0147 10 15.5 10Z" fill="#F2FCE2"/>
  <path d="M17 16L15.5 10L14 16L17 16Z" fill="#6B8E23"/>
</svg>
